<?xml version="1.0" standalone="no"?>
<!DOCTYPE svg PUBLIC "-//W3C//DTD SVG 20010904//EN"
 "http://www.w3.org/TR/2001/REC-SVG-20010904/DTD/svg10.dtd">
<svg version="1.0" xmlns="http://www.w3.org/2000/svg"
 width="1124.000000pt" height="1124.000000pt" viewBox="0 0 1124.000000 1124.000000"
 preserveAspectRatio="xMidYMid meet">
<metadata>
Created by potrace 1.14, written by Peter Selinger 2001-2017
</metadata>
<g transform="translate(0.000000,1124.000000) scale(0.100000,-0.100000)"
fill="#000000" stroke="none">
<path d="M5328 11235 c-2 -2 -21 -6 -43 -9 -100 -12 -236 -60 -337 -118 -40
-23 -75 -44 -78 -47 -3 -4 -22 -18 -42 -34 -195 -145 -342 -404 -374 -661 -13
-104 -3 -321 16 -340 5 -5 6 -14 4 -20 -6 -15 49 -173 84 -241 117 -232 329
-422 587 -526 148 -59 394 -79 555 -45 14 3 36 8 49 11 38 7 125 37 137 46 14
12 29 -6 95 -114 30 -48 87 -141 126 -205 40 -64 80 -132 90 -149 9 -18 20
-33 25 -33 4 0 8 -4 8 -10 0 -12 92 -164 103 -168 4 -2 7 -7 7 -12 0 -9 114
-198 161 -267 16 -23 29 -44 29 -47 0 -4 20 -37 44 -74 23 -37 61 -96 82 -132
21 -36 42 -66 47 -68 4 -2 7 -7 7 -12 0 -4 34 -62 75 -129 41 -66 75 -125 75
-130 0 -5 3 -11 8 -13 4 -1 79 -120 167 -263 87 -143 163 -261 167 -263 4 -2
8 -8 8 -14 0 -6 17 -38 39 -72 21 -34 74 -120 119 -192 l80 -131 -82 -84 c-94
-97 -142 -167 -196 -282 -91 -195 -115 -419 -69 -647 12 -57 53 -180 72 -215
6 -11 11 -23 12 -27 0 -12 49 -87 107 -167 150 -205 382 -354 633 -406 71 -15
116 -19 215 -19 136 1 187 8 306 45 38 12 70 20 70 18 1 -2 10 3 20 12 11 9
30 20 43 24 24 7 103 53 155 90 61 44 185 174 232 245 42 62 104 179 104 195
0 2 5 16 12 32 15 38 16 41 28 93 22 97 25 129 25 245 0 134 -6 177 -36 285
-22 81 -107 270 -121 270 -4 0 -8 5 -8 10 0 12 -30 56 -70 104 -80 95 -239
233 -253 219 -4 -3 -7 -1 -7 5 0 6 -21 21 -47 34 -27 13 -49 26 -51 31 -2 4
-11 7 -21 7 -9 0 -21 4 -27 8 -23 21 -193 70 -274 80 -126 15 -358 0 -409 -27
-9 -5 -20 -9 -26 -10 -5 -1 -32 -8 -58 -17 -27 -9 -50 -14 -52 -13 -1 2 -16
27 -33 54 -16 28 -75 124 -132 215 -56 91 -110 177 -119 192 -9 15 -79 130
-156 255 -77 125 -142 232 -144 238 -2 5 -7 12 -11 15 -3 3 -17 23 -29 45 -13
22 -34 56 -46 75 -12 19 -58 93 -101 163 -112 181 -116 188 -149 243 -16 27
-32 51 -35 54 -3 3 -12 19 -21 35 -9 17 -58 98 -109 180 -144 233 -215 348
-231 375 -8 14 -16 27 -19 30 -8 8 -29 43 -42 70 -7 14 -18 31 -25 38 -7 7
-13 18 -13 23 0 5 -9 19 -20 31 -11 12 -20 28 -20 35 0 7 -3 13 -7 13 -5 0
-17 18 -27 40 -11 22 -22 40 -26 40 -4 0 -10 10 -14 22 -4 18 7 35 57 84 34
34 69 70 77 80 96 120 165 257 195 387 2 10 6 26 9 35 3 9 8 31 12 47 8 41 14
287 6 299 -3 6 -6 19 -7 30 -4 52 -18 113 -36 157 -10 27 -17 49 -15 49 10 0
-79 170 -123 234 -41 63 -199 236 -215 236 -3 0 -29 17 -57 39 -78 59 -248
139 -334 157 -11 2 -33 7 -50 10 -16 4 -39 8 -50 10 -11 1 -20 3 -20 5 0 3
-263 8 -267 4z"/>
<path d="M4780 9148 c-17 -13 -44 -45 -59 -73 -39 -71 -108 -199 -148 -273
-35 -65 -44 -114 -25 -147 33 -62 106 -88 164 -61 24 11 44 35 67 79 38 69 83
151 117 212 74 131 81 157 57 213 -28 67 -112 91 -173 50z"/>
<path d="M4038 7769 c-28 -11 -58 -54 -122 -172 -20 -37 -45 -83 -56 -101 -63
-114 -81 -157 -78 -188 5 -48 36 -93 72 -106 79 -29 120 -5 181 106 75 134 85
152 113 206 14 28 32 59 40 69 9 9 16 39 17 65 2 57 -23 98 -71 118 -38 16
-58 16 -96 3z"/>
<path d="M2989 6944 c-82 -11 -204 -40 -224 -52 -5 -4 -17 -7 -25 -9 -14 -2
-61 -24 -70 -33 -3 -3 -27 -16 -55 -30 -147 -73 -309 -241 -393 -405 -27 -55
-72 -165 -66 -165 3 0 0 -9 -6 -19 -11 -22 -24 -83 -24 -123 -1 -16 -4 -28 -8
-28 -12 0 -6 -234 8 -310 30 -157 99 -320 186 -440 91 -124 256 -264 393 -333
61 -30 214 -82 275 -92 60 -11 303 -12 360 -2 59 10 85 15 85 17 0 1 7 3 15 5
8 1 44 13 80 26 63 22 80 30 186 90 l51 29 20 -23 c11 -12 207 -206 437 -432
381 -374 593 -583 1043 -1027 l159 -156 -46 -49 c-26 -26 -52 -58 -58 -70 -41
-76 32 -177 120 -169 41 4 69 21 122 76 l40 40 77 -77 c42 -43 271 -269 509
-503 1145 -1127 1057 -1036 1041 -1062 -48 -78 -113 -229 -127 -293 -2 -11 -6
-31 -9 -45 -19 -88 -24 -210 -13 -325 23 -241 157 -500 342 -664 16 -14 37
-33 46 -42 44 -42 169 -115 270 -158 260 -111 591 -101 841 24 241 122 414
320 502 575 29 83 36 114 41 177 2 23 6 45 8 50 7 11 2 199 -6 253 -18 116
-104 360 -127 360 -5 0 -9 6 -9 14 0 8 -26 50 -58 93 -176 237 -424 386 -715
430 -78 12 -266 6 -337 -10 -8 -2 -33 -8 -55 -12 -51 -12 -46 -10 -78 -23 -16
-7 -31 -12 -34 -12 -14 0 -193 -94 -193 -101 0 -31 -59 19 -273 230 -133 132
-325 321 -427 421 -904 888 -988 973 -994 1005 -8 43 -68 95 -110 95 -13 0
-108 91 -771 745 -123 121 -383 377 -578 569 l-355 348 39 69 c21 37 39 70 39
72 0 3 8 22 17 43 9 22 18 42 19 47 1 4 2 8 4 10 2 2 3 8 20 77 17 68 20 82
26 125 7 53 6 233 -1 265 -3 14 -8 39 -11 55 -16 93 -55 206 -102 294 -69 132
-205 291 -312 364 -25 17 -46 34 -48 39 -2 4 -8 8 -12 8 -5 0 -31 13 -57 28
-49 29 -167 81 -193 86 -8 1 -34 8 -58 15 -112 32 -261 41 -383 25z"/>
<path d="M4872 6012 c-171 -3 -196 -11 -210 -66 -17 -64 41 -114 123 -107 25
3 27 3 97 1 31 -1 61 1 67 5 6 3 11 1 11 -5 0 -6 5 -8 10 -5 6 4 56 7 111 8
98 0 101 1 125 29 31 38 31 69 -1 106 -24 28 -31 31 -103 34 -42 2 -146 2
-230 0z"/>
<path d="M6305 6002 c-19 -8 -36 -19 -36 -26 -8 -64 -6 -78 18 -104 l25 -27
235 1 236 0 23 28 c31 36 31 80 -1 111 -29 30 -4 27 -258 29 -157 1 -216 -2
-242 -12z"/>
<path d="M8047 4800 c-34 -10 -85 -64 -94 -99 -4 -14 -7 -129 -7 -256 0 -224
0 -231 24 -272 62 -110 222 -108 275 4 15 32 18 69 19 262 1 149 -3 236 -11
259 -12 36 -46 77 -76 94 -26 14 -97 18 -130 8z"/>
<path d="M6792 4770 c-18 -4 -35 -9 -37 -11 -2 -2 -56 -56 -121 -119 -177
-175 -214 -217 -214 -249 0 -105 105 -169 187 -116 13 9 89 82 169 162 128
129 183 200 167 216 -4 4 -9 26 -12 48 -1 3 -9 16 -20 27 -27 32 -80 50 -119
42z"/>
<path d="M3067 4463 c-26 -15 -47 -32 -47 -40 0 -7 -4 -13 -8 -13 -21 0 -28
-81 -26 -296 2 -263 8 -288 84 -338 76 -50 170 -34 227 41 l28 36 0 240 c0
161 -3 251 -12 275 -17 50 -68 98 -116 110 -62 15 -78 13 -130 -15z"/>
<path d="M8044 3195 c-44 -18 -73 -45 -88 -80 -9 -21 -13 -98 -14 -260 -1
-202 1 -234 17 -270 54 -122 223 -128 284 -10 12 24 15 68 16 194 1 90 4 168
7 172 2 4 0 10 -5 13 -4 3 -5 24 -1 46 4 21 5 42 2 45 -3 3 -7 19 -9 36 -9 86
-125 149 -209 114z"/>
<path d="M3130 2880 c-55 -15 -90 -42 -111 -83 -20 -38 -22 -56 -21 -207 2
-198 2 -236 1 -252 -3 -40 36 -148 53 -148 5 0 22 -10 39 -22 44 -33 125 -30
177 6 64 44 67 56 69 296 2 118 0 234 -3 256 -13 101 -116 179 -204 154z"/>
<path d="M4535 2535 c-25 -11 -243 -218 -323 -307 -71 -78 -5 -208 101 -200
42 3 63 20 223 181 147 147 164 170 164 219 0 32 -42 98 -67 106 -43 13 -71
13 -98 1z"/>
<path d="M3107 2064 c-1 -1 -32 -5 -68 -8 -219 -18 -437 -123 -602 -290 -87
-88 -193 -246 -195 -290 0 -5 -4 -12 -9 -15 -10 -7 -59 -158 -69 -216 -10 -50
-10 -307 -1 -360 11 -65 14 -76 42 -160 27 -80 97 -221 125 -253 8 -9 28 -36
44 -60 68 -100 255 -250 389 -312 148 -68 262 -93 432 -94 120 -1 167 3 235
18 14 3 34 8 45 10 64 13 277 111 295 136 3 4 10 9 17 11 22 7 139 114 184
167 118 141 179 268 225 467 4 17 8 93 10 170 2 109 -2 160 -17 230 -61 281
-227 523 -469 681 -63 41 -189 102 -228 110 -8 1 -21 6 -30 10 -19 8 -20 8
-81 22 -25 6 -49 9 -53 6 -4 -3 -8 -1 -8 3 0 5 -15 9 -32 10 -70 5 -179 9
-181 7z"/>
<path d="M4451 1173 c-130 -32 -142 -206 -19 -269 26 -14 69 -16 266 -15 262
1 274 3 320 72 19 27 23 43 19 81 -6 56 -28 91 -75 120 -33 20 -47 22 -250 22
-133 1 -233 -3 -261 -11z"/>
<path d="M6055 1182 c-32 -7 -74 -41 -91 -75 -33 -64 -13 -142 50 -189 30 -22
37 -23 271 -25 205 -1 245 1 274 15 72 36 104 126 67 192 -48 84 -64 88 -331
87 -121 -1 -229 -3 -240 -5z"/>
</g>
</svg>
